<svg width="117" height="168" viewBox="0 0 117 168" fill="none" xmlns="http://www.w3.org/2000/svg">
<path d="M38.6792 110.821C33.2591 106.264 35.4575 103.321 24.7185 102.25C13.9795 101.179 6.46223 116.179 6.46223 116.179C6.46223 116.179 0.168125 130.745 1.09273 146.179C4.10096 155.305 6.35901 159.388 10.7578 166C10.0044 156.008 11.0241 152.157 16.6643 149.929C23.579 146.325 35.9945 151 42.9748 146.179C49.9552 141.357 50.5925 131.887 52.6399 126.893C54.6873 121.899 53.4545 118.982 49.9552 116.179C46.4559 113.375 44.0993 115.379 38.6792 110.821Z" fill="#2CA6CD" stroke="#2CA6CD"/>
<path d="M116 10.6429C113.459 2.87316 110.835 2.40853 106.335 1L31.1619 91.5357C33.0152 97.2503 34.3177 100.541 40.2901 107.607C44.7846 112.121 47.9104 114.127 55.8616 115.643L116 24.5714C114.645 15.8147 115.125 13.9835 115.957 10.8065L116 10.6429Z" fill="black" stroke="black"/>
</svg>
